<svg width="51" height="51" viewBox="0 0 51 51" fill="none" xmlns="http://www.w3.org/2000/svg">
<g clip-path="url(#clip0_2301_1045)">
<path d="M25.03 50.6602C38.8371 50.6602 50.03 39.4673 50.03 25.6602C50.03 11.853 38.8371 0.660156 25.03 0.660156C11.2229 0.660156 0.0300293 11.853 0.0300293 25.6602C0.0300293 39.4673 11.2229 50.6602 25.03 50.6602Z" fill="#4E6297"/>
<path d="M36.28 17.9335C36.28 16.0618 34.6284 14.4102 32.7567 14.4102H18.5533C16.6816 14.4102 15.03 16.0618 15.03 17.9335V32.1369C15.03 34.0086 16.6816 35.6602 18.5533 35.6602H25.71V27.6226H23.0676V24.0993H25.71V22.668C25.71 20.2457 27.4717 18.1537 29.6738 18.1537H32.5365V21.677H29.6738C29.3435 21.677 29.0132 22.0073 29.0132 22.668V24.0993H32.5365V27.6226H29.0132V35.6602H32.7567C34.6284 35.6602 36.28 34.0086 36.28 32.1369V17.9335Z" fill="white"/>
</g>
<defs>
<clipPath id="clip0_2301_1045">
<rect width="50" height="50" fill="white" transform="translate(0.0300293 0.660156)"/>
</clipPath>
</defs>
</svg>
