<svg width="50" height="51" viewBox="0 0 50 51" fill="none" xmlns="http://www.w3.org/2000/svg">
<g clip-path="url(#clip0_2301_1048)">
<path d="M25 50.6602C38.8071 50.6602 50 39.4673 50 25.6602C50 11.853 38.8071 0.660156 25 0.660156C11.1929 0.660156 0 11.853 0 25.6602C0 39.4673 11.1929 50.6602 25 50.6602Z" fill="url(#paint0_linear_2301_1048)"/>
<path d="M33.226 15.6602H18.024C16.3077 15.6602 15 16.9679 15 18.6842V33.8862C15 35.6025 16.3077 36.9102 18.024 36.9102H33.226C34.9423 36.9102 36.25 35.6025 36.25 33.8862V18.6842C36.25 16.9679 34.9423 15.6602 33.226 15.6602ZM25.625 32.6602C29.1394 32.6602 32 29.8814 32 26.5304C32 25.9583 31.9183 25.3044 31.7548 24.814H33.5529V33.4775C33.5529 33.8862 33.226 34.2948 32.7356 34.2948H18.5144C18.1058 34.2948 17.6971 33.9679 17.6971 33.4775V24.7323H19.5769C19.4135 25.3044 19.3317 25.8765 19.3317 26.4487C19.25 29.8814 22.1106 32.6602 25.625 32.6602ZM25.625 30.2083C23.3365 30.2083 21.5385 28.4102 21.5385 26.2035C21.5385 23.9967 23.3365 22.1987 25.625 22.1987C27.9135 22.1987 29.7115 23.9967 29.7115 26.2035C29.7115 28.4919 27.9135 30.2083 25.625 30.2083ZM33.4712 21.4631C33.4712 21.9535 33.0625 22.3621 32.5721 22.3621H30.2837C29.7933 22.3621 29.3846 21.9535 29.3846 21.4631V19.2564C29.3846 18.766 29.7933 18.3573 30.2837 18.3573H32.5721C33.0625 18.3573 33.4712 18.766 33.4712 19.2564V21.4631Z" fill="white"/>
</g>
<defs>
<linearGradient id="paint0_linear_2301_1048" x1="10.625" y1="45.0352" x2="43.75" y2="10.6602" gradientUnits="userSpaceOnUse">
<stop stop-color="#EEA054"/>
<stop offset="0.502762" stop-color="#D64763"/>
<stop offset="1" stop-color="#B62A99"/>
</linearGradient>
<clipPath id="clip0_2301_1048">
<rect width="50" height="50" fill="white" transform="translate(0 0.660156)"/>
</clipPath>
</defs>
</svg>
