<svg width="51" height="51" viewBox="0 0 51 51" fill="none" xmlns="http://www.w3.org/2000/svg">
<g clip-path="url(#clip0_2301_1051)">
<path d="M25.97 50.6602C39.7771 50.6602 50.97 39.4673 50.97 25.6602C50.97 11.853 39.7771 0.660156 25.97 0.660156C12.1629 0.660156 0.969971 11.853 0.969971 25.6602C0.969971 39.4673 12.1629 50.6602 25.97 50.6602Z" fill="#F40000"/>
<path d="M36.8614 24.3016C36.8614 23.8168 36.7806 23.2511 36.7806 22.6046C36.6998 21.9582 36.619 21.3117 36.5382 20.7461C36.3766 20.0996 36.1341 19.6147 35.6493 19.2107C35.2452 18.8067 34.6796 18.5642 34.1139 18.4834C32.2554 18.241 29.5079 18.1602 25.7907 18.1602C22.0735 18.1602 19.2452 18.241 17.4675 18.4834C16.9018 18.5642 16.3362 18.8067 15.9321 19.2107C15.5281 19.6147 15.2048 20.0996 15.0432 20.7461C14.8816 21.3117 14.8008 21.8774 14.8008 22.6046C14.72 23.2511 14.72 23.8168 14.72 24.3016C14.72 24.7865 14.72 25.3521 14.72 26.1602C14.72 26.9683 14.72 27.6147 14.72 28.0188C14.72 28.5036 14.8008 29.0693 14.8008 29.7158C14.8816 30.3622 14.9624 31.0087 15.0432 31.5743C15.2048 32.2208 15.4473 32.7057 15.9321 33.1097C16.3362 33.5137 16.9018 33.7562 17.4675 33.837C19.3261 34.0794 22.0735 34.1602 25.7907 34.1602C29.5079 34.1602 32.3362 34.0794 34.1139 33.837C34.6796 33.7562 35.2452 33.5137 35.6493 33.1097C36.0533 32.7057 36.3766 32.2208 36.5382 31.5743C36.6998 31.0087 36.7806 30.443 36.7806 29.7158C36.8614 29.0693 36.8614 28.5036 36.8614 28.0188C36.8614 27.5339 36.8614 26.9683 36.8614 26.1602C36.8614 25.3521 36.8614 24.7056 36.8614 24.3016ZM30.0735 26.8067L23.6897 30.7663C23.6089 30.8471 23.4473 30.9279 23.2857 30.9279C23.124 30.9279 23.0432 30.9279 22.8816 30.8471C22.6392 30.6855 22.4776 30.443 22.4776 30.1198V22.1198C22.4776 21.7966 22.6392 21.5541 22.8816 21.3925C23.124 21.2309 23.4473 21.2309 23.6897 21.3925L30.0735 25.3521C30.316 25.5137 30.4776 25.7562 30.4776 25.9986C30.4776 26.241 30.316 26.645 30.0735 26.8067Z" fill="white"/>
</g>
<defs>
<clipPath id="clip0_2301_1051">
<rect width="50" height="50" fill="white" transform="translate(0.969971 0.660156)"/>
</clipPath>
</defs>
</svg>
